<?xml version="1.0" standalone="no"?>
<!DOCTYPE svg PUBLIC "-//W3C//DTD SVG 20010904//EN"
 "http://www.w3.org/TR/2001/REC-SVG-20010904/DTD/svg10.dtd">
<svg version="1.0" xmlns="http://www.w3.org/2000/svg"
 width="2000.000000pt" height="2000.000000pt" viewBox="0 0 2000.000000 2000.000000"
 preserveAspectRatio="xMidYMid meet">

<g transform="translate(0.000000,2000.000000) scale(0.100000,-0.100000)"
fill="#000000" stroke="none">
<path d="M11910 17905 l0 -365 105 0 105 0 0 365 0 365 -105 0 -105 0 0 -365z"/>
<path d="M8189 18241 c-168 -54 -308 -193 -370 -368 -30 -82 -37 -237 -15
-323 59 -236 241 -410 464 -442 227 -33 460 86 564 287 58 113 72 168 72 280
1 77 -4 117 -22 172 -59 190 -202 341 -370 393 -85 26 -243 27 -323 1z m261
-193 c174 -50 275 -291 210 -501 -69 -223 -307 -317 -486 -194 -182 126 -212
436 -58 606 88 98 201 128 334 89z"/>
<path d="M9321 17955 c-168 -47 -285 -183 -310 -357 -43 -304 202 -544 507
-499 151 22 262 102 329 238 31 63 36 84 41 167 4 77 1 106 -16 163 -39 126
-133 228 -252 274 -73 28 -223 35 -299 14z m233 -199 c165 -97 149 -388 -26
-460 -106 -45 -222 6 -274 118 -28 61 -32 151 -9 217 49 138 189 195 309 125z"/>
<path d="M10413 17956 c-55 -18 -100 -47 -143 -91 l-35 -36 -5 63 -5 63 -92 3
-93 3 0 -596 0 -595 105 0 105 0 0 235 c0 129 1 235 3 235 2 0 28 -24 58 -54
69 -66 133 -90 239 -90 165 1 284 101 341 287 18 58 21 86 17 175 -4 92 -9
116 -36 174 -40 88 -108 160 -189 200 -54 26 -79 32 -146 35 -51 2 -98 -2
-124 -11z m105 -178 c60 -15 142 -94 160 -154 20 -67 15 -152 -12 -209 -79
-170 -276 -181 -383 -21 -31 46 -33 53 -33 143 0 139 35 197 142 234 64 22 67
22 126 7z"/>
<path d="M11223 17951 c-89 -30 -158 -96 -183 -174 -7 -22 -10 -68 -8 -103 3
-56 8 -68 38 -100 43 -45 81 -63 251 -114 74 -23 144 -48 157 -56 52 -34 47
-99 -10 -134 -67 -41 -213 -17 -331 54 l-57 35 -14 -22 c-8 -12 -26 -42 -41
-66 l-28 -45 28 -22 c85 -68 218 -107 360 -107 159 0 259 48 310 147 32 64 35
158 5 215 -35 70 -92 98 -349 171 -84 24 -121 55 -121 98 0 101 173 119 319
33 28 -17 54 -31 56 -31 2 0 23 27 46 61 47 70 45 76 -39 122 -106 57 -283 75
-389 38z"/>
<path d="M11910 17230 l0 -120 105 0 105 0 0 120 0 120 -105 0 -105 0 0 -120z"/>
<path d="M14073 16743 c-8 -24 -17 -28 -77 -38 l-67 -11 -15 28 c-8 15 -19 28
-26 28 -8 0 -61 -28 -86 -46 -2 -1 3 -18 12 -37 13 -33 13 -37 -6 -53 -11 -10
-27 -31 -35 -45 -15 -25 -21 -27 -72 -24 -31 1 -85 14 -121 29 -134 55 -214
70 -365 70 -124 -1 -149 -4 -220 -27 -250 -83 -445 -286 -514 -537 -25 -89
-45 -256 -39 -322 5 -47 4 -49 -16 -43 -12 3 -73 9 -136 12 -197 9 -318 -35
-446 -162 -67 -67 -137 -180 -157 -255 -6 -22 -13 -14 -63 75 -219 388 -482
646 -839 824 -277 138 -509 187 -839 178 -308 -8 -552 -73 -811 -215 -269
-148 -531 -400 -699 -671 -250 -405 -369 -889 -353 -1436 12 -391 79 -695 224
-1012 221 -483 580 -831 1045 -1011 206 -80 391 -112 648 -112 310 0 519 46
776 170 442 214 763 574 967 1085 110 273 164 550 174 880 12 400 -45 745
-179 1076 l-51 127 39 83 c84 179 202 284 372 331 64 17 94 20 177 15 55 -3
117 -11 137 -17 32 -9 38 -16 43 -48 45 -267 185 -452 313 -414 52 16 92 60
99 111 13 98 -101 231 -275 318 -53 26 -100 53 -104 58 -23 31 -1 265 37 390
59 194 199 360 375 448 133 66 199 81 345 80 128 -1 254 -26 364 -73 l52 -23
-6 -39 c-7 -37 -5 -39 28 -53 33 -13 35 -17 40 -72 4 -49 2 -61 -14 -75 -11
-9 -25 -18 -32 -21 -9 -3 -5 -18 12 -54 l23 -51 38 16 39 15 45 -39 c43 -36
46 -42 40 -75 -5 -36 -5 -37 42 -53 51 -17 58 -14 70 32 5 18 13 22 44 22 21
0 50 2 66 6 25 4 32 0 46 -26 l17 -30 46 22 c46 23 53 35 34 69 -8 16 -4 27
25 61 20 23 36 46 36 51 0 5 17 7 40 4 l39 -5 15 51 c8 28 14 52 13 52 -1 1
-13 6 -27 11 -20 9 -26 21 -35 78 l-11 67 28 17 28 18 -21 39 c-29 55 -33 58
-61 45 -22 -11 -31 -7 -81 30 -48 37 -55 45 -47 64 11 29 3 40 -39 54 -49 17
-58 15 -68 -15z m48 -205 c74 -41 101 -146 59 -227 -40 -79 -140 -110 -220
-69 -138 71 -126 268 18 312 54 17 91 12 143 -16z m-1548 -919 c133 -67 244
-180 254 -258 6 -47 -8 -76 -49 -97 -96 -50 -210 78 -266 298 -17 68 -18 88
-5 88 2 0 32 -14 66 -31z m-2389 -338 c85 -30 142 -66 215 -135 197 -188 304
-464 331 -853 23 -314 -32 -649 -141 -865 -98 -195 -242 -334 -400 -389 -88
-30 -240 -37 -333 -15 -286 67 -492 348 -572 781 -15 81 -19 148 -18 360 0
243 2 268 27 387 43 203 107 358 202 488 100 137 203 211 348 251 95 25 254
21 341 -10z"/>
<path d="M13949 16516 c-85 -58 -83 -193 4 -247 41 -26 130 -22 170 6 56 42
74 132 37 193 -44 72 -142 95 -211 48z m151 -12 c76 -45 81 -169 8 -216 -108
-70 -243 38 -194 155 28 68 122 98 186 61z"/>
<path d="M5778 16061 l-377 -96 -188 -429 c-103 -236 -193 -430 -200 -433 -6
-2 -21 1 -33 7 -11 6 -52 14 -91 17 l-69 6 0 46 c0 226 -76 438 -200 561 -155
151 -421 213 -654 151 -43 -11 -124 -45 -181 -74 l-102 -54 -34 29 c-19 16
-55 40 -80 53 l-47 24 9 47 c11 56 8 58 -71 75 -30 6 -59 13 -65 16 -6 2 -19
-21 -29 -52 l-17 -55 -43 0 c-24 0 -65 -7 -92 -15 -54 -16 -50 -19 -101 50
l-18 24 -63 -38 c-34 -21 -65 -41 -68 -44 -3 -3 6 -28 21 -57 l26 -51 -30 -35
c-17 -19 -40 -52 -51 -74 -22 -42 -28 -44 -97 -31 l-41 8 -20 -78 -20 -79 59
-21 c55 -20 59 -24 59 -53 0 -30 10 -79 24 -122 5 -16 -3 -27 -39 -53 -25 -18
-45 -36 -45 -41 0 -17 73 -130 84 -130 6 1 31 11 55 24 l44 23 64 -49 c35 -26
69 -48 75 -48 7 0 8 -21 4 -64 l-7 -63 58 -12 c32 -6 67 -14 78 -17 18 -4 23
3 38 50 18 55 19 56 55 56 20 0 62 6 94 14 l56 13 32 -44 c29 -42 32 -44 53
-31 12 8 43 27 69 42 l48 28 -26 50 -25 49 35 39 c19 21 45 57 58 79 21 38 25
40 58 35 19 -3 42 -8 51 -10 12 -3 19 12 33 71 10 41 15 78 12 83 -3 5 -26 15
-51 22 l-45 13 0 52 c0 28 -6 73 -14 98 l-14 46 39 27 c22 15 39 29 39 33 -1
3 -18 35 -40 71 l-40 64 69 28 c338 134 705 24 844 -252 49 -99 76 -210 84
-346 l6 -110 -44 -17 c-70 -27 -143 -97 -183 -179 -31 -61 -36 -81 -36 -140 0
-64 3 -72 29 -99 66 -66 144 -16 199 128 30 78 62 210 62 258 0 24 3 25 53 25
63 0 126 -16 133 -34 3 -7 -86 -220 -196 -472 -111 -252 -273 -621 -360 -819
-228 -520 -369 -841 -401 -915 -16 -36 -68 -155 -117 -265 l-88 -200 129 -510
c71 -280 130 -511 131 -512 1 -2 42 8 92 21 94 25 614 158 1379 351 253 64
467 118 476 121 13 3 19 -7 26 -43 10 -49 234 -927 236 -929 1 -1 124 29 272
67 149 38 402 103 564 144 161 41 296 77 299 79 4 5 -14 81 -174 710 -48 188
-62 261 -54 266 12 8 523 139 573 148 16 2 30 10 33 16 2 6 -25 126 -61 266
-36 140 -93 366 -127 503 -50 194 -66 247 -79 247 -9 0 -150 -34 -314 -76
-163 -41 -298 -74 -300 -72 -2 2 -51 192 -109 423 -58 231 -175 692 -260 1025
-84 333 -204 803 -265 1045 -132 519 -119 475 -134 474 -7 -1 -182 -44 -389
-98z m-2318 -445 c95 -63 126 -178 76 -280 -43 -87 -141 -139 -228 -121 -92
20 -160 85 -179 172 -22 98 30 200 125 245 58 27 152 20 206 -16z m1304 -583
c-18 -127 -75 -274 -124 -318 -26 -24 -68 -13 -81 23 -22 56 15 179 77 251 27
33 109 91 127 91 4 0 5 -21 1 -47z m914 -1113 c109 -434 240 -948 246 -968 6
-17 -7 -22 -136 -55 -608 -155 -812 -207 -819 -207 -7 0 -1 15 376 890 136
316 250 581 252 588 3 7 9 10 13 5 4 -4 34 -118 68 -253z"/>
<path d="M3258 15548 l-68 -40 0 -72 c0 -43 5 -79 13 -88 6 -8 40 -30 74 -48
l62 -32 63 39 63 39 3 84 2 85 -70 38 c-38 20 -71 37 -72 37 -2 -1 -33 -19
-70 -42z m110 -80 c17 -17 15 -63 -2 -78 -23 -18 -59 -8 -75 22 -14 24 -14 28
3 47 21 23 56 27 74 9z"/>
<path d="M14922 15813 c-290 -271 -430 -400 -892 -828 -124 -115 -259 -240
-300 -279 -98 -93 -165 -155 -335 -311 -219 -202 -514 -476 -690 -640 -88 -82
-201 -187 -251 -232 l-90 -83 -16 -102 c-9 -57 -46 -289 -83 -516 -37 -228
-64 -416 -62 -419 3 -2 270 -47 594 -99 323 -53 594 -97 601 -100 10 -3 9 -10
-6 -31 -32 -46 -60 -106 -67 -147 -7 -35 -10 -37 -34 -31 -146 38 -313 46
-428 21 -84 -18 -198 -74 -256 -126 -103 -92 -193 -255 -218 -394 -23 -137 0
-344 56 -488 5 -11 0 -18 -16 -23 -22 -7 -28 -3 -54 40 -10 16 -13 16 -52 -4
-52 -26 -55 -31 -41 -68 10 -27 8 -35 -23 -78 -33 -45 -35 -47 -74 -41 l-41 5
-12 -45 c-16 -61 -16 -61 22 -75 32 -12 34 -15 39 -73 4 -42 2 -63 -6 -68 -51
-29 -52 -32 -28 -82 22 -49 32 -52 81 -26 9 5 27 -3 54 -26 22 -19 44 -34 48
-34 5 0 6 -19 3 -43 l-7 -43 40 -12 c57 -17 66 -15 78 16 9 23 19 30 50 35 68
12 87 8 109 -19 l21 -26 43 21 c41 21 43 24 37 56 -6 29 -1 42 31 85 35 46 40
50 70 44 35 -7 40 0 57 69 6 25 3 30 -22 39 -28 11 -30 16 -35 77 -5 62 -4 67
20 86 l25 21 -25 44 c-15 25 -32 43 -39 41 -45 -13 -56 -10 -101 26 -43 34
-47 41 -42 69 5 31 3 33 -42 48 -61 21 -60 21 -72 -16 -9 -28 -16 -33 -45 -35
-32 -1 -34 1 -50 50 -56 173 -60 383 -9 528 72 209 222 355 415 406 82 22 247
21 353 -2 103 -22 111 -27 117 -73 28 -204 326 -385 396 -239 21 43 0 88 -69
151 -56 50 -189 127 -268 154 -32 11 -33 13 -26 49 10 55 38 114 71 149 l29
31 365 -60 c201 -32 367 -61 369 -63 3 -2 -32 -226 -76 -497 -44 -270 -79
-493 -79 -494 1 -1 47 -9 101 -18 171 -27 155 -17 156 -93 2 -56 3 -50 10 43
19 244 94 424 263 627 244 294 693 505 1186 559 133 14 442 6 575 -15 558 -90
1020 -384 1214 -773 78 -157 106 -273 104 -443 -1 -187 -50 -346 -156 -507
-288 -438 -858 -703 -1512 -703 -235 -1 -362 15 -574 71 -183 48 -353 120
-504 214 -39 25 -76 45 -82 45 -5 0 -133 -32 -283 -71 -150 -40 -275 -69 -278
-66 -3 3 4 23 15 46 12 22 21 44 20 48 0 4 -14 -19 -29 -51 -16 -33 -28 -61
-27 -62 1 -1 130 29 285 67 156 38 287 69 291 69 4 0 55 -29 114 -64 308 -185
659 -276 1067 -276 476 0 875 123 1206 371 344 258 525 624 485 983 -62 552
-591 1007 -1315 1131 -49 8 -134 18 -188 22 -54 3 -100 9 -102 12 -2 3 18 134
43 291 42 251 45 286 32 291 -9 3 -151 28 -316 54 -165 27 -302 50 -304 51 -2
2 15 117 38 256 68 420 138 852 271 1673 45 275 101 622 125 770 24 149 45
283 47 300 l3 30 -135 22 c-74 12 -248 40 -387 62 -138 23 -257 41 -263 41 -5
0 -144 -125 -308 -277z m-316 -2071 c-57 -348 -105 -634 -107 -636 -5 -4 -969
151 -975 157 -2 2 162 158 364 348 202 189 405 380 452 425 184 175 365 343
367 341 1 -2 -44 -287 -101 -635z m-1152 -1851 c135 -65 236 -150 236 -200 0
-21 -33 -41 -69 -41 -89 0 -211 101 -251 208 -33 87 -32 88 84 33z m-877
-1060 c58 -27 95 -85 95 -149 0 -60 -21 -102 -69 -139 -31 -24 -46 -28 -99
-28 -67 0 -99 15 -137 66 -40 54 -40 143 0 198 24 33 98 71 138 71 16 0 49 -9
72 -19z"/>
<path d="M12444 10816 c-92 -42 -116 -163 -46 -237 31 -34 46 -42 84 -46 158
-18 234 175 107 270 -34 25 -105 31 -145 13z m111 -20 c63 -27 94 -114 62
-176 -7 -13 -28 -35 -47 -48 -92 -62 -220 32 -190 139 11 38 26 57 65 81 36
22 64 23 110 4z"/>
<path d="M16395 11231 c-85 -22 -143 -70 -187 -154 -31 -59 -31 -175 0 -234
55 -106 129 -153 239 -153 80 0 131 21 184 74 50 49 72 99 77 173 8 116 -48
222 -141 267 -57 28 -126 39 -172 27z m125 -109 c50 -27 84 -93 85 -162 0
-184 -212 -249 -292 -90 -61 119 13 270 131 270 23 0 57 -8 76 -18z"/>
<path d="M14740 10960 l0 -270 185 0 185 0 0 45 0 45 -135 0 -135 0 0 70 0 70
115 0 115 0 0 45 0 45 -115 0 -115 0 0 65 0 65 135 0 135 0 0 45 0 45 -185 0
-185 0 0 -270z"/>
<path d="M15200 10960 l0 -270 50 0 50 0 0 90 0 90 54 0 54 0 53 -90 53 -90
58 0 c32 0 58 2 58 5 0 3 -25 47 -55 97 -30 50 -55 93 -55 95 0 2 14 16 30 30
77 64 79 181 6 261 -41 46 -66 52 -216 52 l-140 0 0 -270z m275 155 c35 -34
35 -96 0 -131 -23 -23 -31 -25 -97 -22 l-73 3 -3 74 c-2 41 -1 80 2 88 4 9 26
13 76 13 62 0 74 -3 95 -25z"/>
<path d="M15710 10960 l0 -270 50 0 50 0 0 90 0 90 54 0 54 0 53 -90 53 -90
58 0 c32 0 58 2 58 5 0 2 -25 45 -55 95 -30 50 -55 95 -55 99 0 5 12 16 26 26
31 20 63 88 64 133 0 40 -24 99 -53 130 -43 46 -67 52 -217 52 l-140 0 0 -270z
m275 155 c31 -30 34 -92 6 -126 -17 -21 -30 -24 -100 -27 l-81 -4 0 91 0 91
75 0 c67 0 79 -3 100 -25z"/>
<path d="M16797 11224 c-4 -4 -7 -126 -7 -271 l0 -263 55 0 55 0 0 90 0 90 53
0 52 0 54 -90 54 -90 59 0 c33 0 57 3 55 8 -2 4 -27 46 -55 93 -29 48 -52 90
-52 93 0 4 16 22 35 41 77 78 68 204 -22 272 -35 27 -40 28 -182 31 -81 2
-150 0 -154 -4z m270 -99 c47 -33 37 -136 -14 -156 -13 -5 -53 -9 -89 -9 l-64
0 0 90 0 90 73 0 c49 0 80 -5 94 -15z"/>
<path d="M14302 10855 c0 -16 2 -22 5 -12 2 9 2 23 0 30 -3 6 -5 -1 -5 -18z"/>
<path d="M14311 10794 c0 -11 3 -14 6 -6 3 7 2 16 -1 19 -3 4 -6 -2 -5 -13z"/>
<path d="M14321 10754 c0 -11 3 -14 6 -6 3 7 2 16 -1 19 -3 4 -6 -2 -5 -13z"/>
<path d="M14356 10215 c-9 -26 -7 -32 5 -12 6 10 9 21 6 23 -2 3 -7 -2 -11
-11z"/>
<path d="M8870 10214 c-198 -23 -334 -74 -475 -179 -193 -145 -315 -346 -356
-590 -18 -105 -6 -280 26 -390 90 -305 331 -541 642 -627 64 -18 106 -22 233
-22 142 0 162 2 244 28 270 84 456 241 571 481 51 107 71 178 85 303 22 201
-31 418 -146 592 -46 70 -161 189 -233 240 -55 40 -180 102 -246 123 -99 31
-261 50 -345 41z m-224 -317 l60 -12 -16 -97 c-8 -53 -18 -100 -22 -104 -4 -4
-49 -1 -100 7 -51 7 -96 12 -100 11 -11 -3 -10 22 7 113 8 44 14 86 15 93 0
14 39 11 156 -11z m813 -132 c46 -8 86 -17 89 -20 5 -5 -26 -197 -33 -204 -2
-2 -48 3 -102 12 -54 8 -101 12 -104 9 -4 -4 -12 -49 -19 -100 -7 -51 -17 -95
-21 -98 -4 -2 -51 3 -104 12 -53 9 -98 14 -100 12 -7 -7 -36 -189 -31 -197 3
-4 50 -14 106 -21 55 -7 100 -15 100 -18 0 -21 -34 -199 -39 -204 -3 -4 -52 0
-109 9 -96 15 -103 17 -98 37 16 69 28 178 20 185 -10 9 -137 31 -177 31 -22
0 -25 -6 -37 -87 -8 -49 -14 -91 -14 -95 -2 -17 -20 -17 -111 -3 -69 11 -100
13 -105 5 -4 -6 -12 -53 -20 -105 l-13 -95 -41 6 c-112 18 -171 31 -171 40 0
30 29 195 35 199 4 2 50 -3 103 -12 54 -9 99 -14 102 -12 2 3 11 49 21 104 9
55 17 101 18 101 0 1 47 -6 104 -16 56 -9 104 -14 106 -11 7 11 30 190 25 195
-2 3 -47 12 -99 21 -52 9 -97 18 -99 21 -4 4 10 108 25 185 l5 26 100 -17 c54
-9 102 -20 106 -23 3 -4 -1 -51 -10 -104 -9 -53 -15 -98 -14 -99 5 -6 200 -34
204 -30 2 2 11 46 19 97 9 52 17 96 20 98 2 3 42 0 87 -7 133 -19 123 -24 136
71 16 106 19 117 39 117 9 0 55 -7 101 -15z m-142 -841 c54 -8 98 -16 99 -17
0 -1 -6 -47 -15 -102 -19 -117 -12 -113 -141 -92 l-85 13 1 35 c2 58 25 179
35 179 5 0 53 -7 106 -16z"/>
<path d="M14312 10115 c-17 -37 -14 -45 4 -12 9 16 14 31 11 33 -2 2 -9 -7
-15 -21z"/>
<path d="M10880 9085 c-13 -15 -6 -35 13 -35 7 0 6 4 -3 10 -18 11 -15 14 30
27 l35 11 -31 1 c-17 1 -37 -6 -44 -14z"/>
<path d="M10938 9073 c7 -3 16 -2 19 1 4 3 -2 6 -13 5 -11 0 -14 -3 -6 -6z"/>
<path d="M11082 9067 c-7 -8 -10 -23 -6 -33 5 -16 4 -17 -6 -4 -9 12 -10 7 -5
-22 3 -21 2 -38 -2 -38 -4 0 -5 -66 -1 -147 5 -116 12 -167 33 -237 73 -250
244 -454 472 -565 127 -62 208 -82 359 -88 79 -3 158 -1 197 6 244 42 464 187
601 395 53 80 116 212 116 245 0 14 2 14 11 1 8 -11 9 -8 4 13 -3 16 -2 26 2
24 4 -3 9 5 9 18 2 22 -6 25 -115 50 -64 15 -197 47 -296 70 -99 24 -222 53
-274 66 -106 25 -103 27 -120 -60 -17 -87 -108 -462 -113 -467 -6 -5 -194 39
-203 48 -3 3 11 72 30 154 53 219 95 398 92 399 -1 1 -74 19 -162 39 -88 21
-205 49 -260 62 -55 13 -147 35 -205 49 -58 14 -114 27 -126 31 -12 3 -25 -1
-32 -9z"/>
<path d="M11008 9053 c6 -2 18 -2 25 0 6 3 1 5 -13 5 -14 0 -19 -2 -12 -5z"/>
<path d="M10945 9040 c4 -6 11 -8 16 -5 14 9 11 15 -7 15 -8 0 -12 -5 -9 -10z"/>
<path d="M11042 9000 c0 -14 2 -19 5 -12 2 6 2 18 0 25 -3 6 -5 1 -5 -13z"/>
<path d="M13046 8591 c-4 -7 -5 -15 -2 -18 9 -9 19 4 14 18 -4 11 -6 11 -12 0z"/>
<path d="M13005 8553 c16 -3 33 -9 36 -15 4 -5 9 -3 12 6 5 13 -1 16 -36 15
-34 -2 -36 -3 -12 -6z"/>
<path d="M3127 8147 c-154 -277 -231 -571 -244 -933 l-6 -172 -48 143 c-58
175 -110 286 -188 402 -64 94 -179 223 -199 223 -15 0 -15 1 3 -123 50 -334
151 -559 348 -774 l64 -70 11 -94 c7 -52 14 -123 17 -159 l6 -65 -40 108 c-85
233 -175 382 -311 517 -89 89 -210 180 -210 159 0 -12 52 -164 122 -354 82
-223 170 -344 342 -472 26 -20 42 -23 119 -23 l89 0 -6 28 c-3 15 -12 77 -20
137 -80 594 -17 1116 182 1512 31 60 38 82 28 86 -9 4 -29 -23 -59 -76z"/>
<path d="M3427 7707 c-236 -288 -374 -680 -412 -1169 l-6 -78 34 0 34 0 7 118
c17 285 73 536 173 772 53 125 87 186 165 301 32 47 58 89 58 92 0 18 -21 3
-53 -36z"/>
<path d="M9400 7380 l0 -50 343 1 c188 0 338 2 332 4 -10 4 -648 95 -665 95
-6 0 -10 -22 -10 -50z"/>
<path d="M9400 7236 l0 -56 710 0 c701 0 710 0 710 20 0 22 -2 23 -150 45 -58
9 -125 21 -150 27 -28 7 -243 13 -582 15 l-538 4 0 -55z"/>
<path d="M3524 7207 c-138 -112 -239 -241 -319 -409 -42 -88 -115 -295 -115
-325 0 -9 19 -13 69 -13 l68 0 59 60 c106 109 182 257 244 470 12 41 35 117
51 168 17 50 29 97 27 103 -2 6 -40 -18 -84 -54z"/>
<path d="M13985 7074 c-140 -75 -474 -266 -575 -329 -32 -20 -41 -21 -107 -12
l-72 11 -12 52 c-7 29 -15 57 -18 62 -4 7 -36 5 -91 -4 -47 -7 -86 -14 -88
-14 -2 0 -2 -31 0 -70 l3 -69 -39 -18 c-22 -10 -57 -30 -79 -46 -33 -24 -42
-27 -52 -15 -7 7 -34 38 -61 68 -115 132 -277 239 -424 279 -90 25 -241 28
-343 6 -106 -22 -218 -87 -294 -170 -76 -83 -151 -228 -184 -353 l-22 -82 -36
7 c-20 5 -68 7 -108 7 -157 -4 -300 -117 -413 -327 -43 -80 -100 -226 -99
-255 0 -9 10 12 23 49 12 36 47 112 77 169 128 245 331 378 498 328 l45 -14 1
-154 c2 -173 17 -244 63 -292 48 -52 113 -34 152 42 21 40 15 166 -10 230 -26
65 -78 137 -120 165 -28 18 -30 23 -24 60 19 119 91 281 163 368 120 144 266
209 471 208 204 -1 389 -89 568 -269 95 -97 98 -125 7 -67 -31 20 -58 35 -59
33 -2 -1 -27 -36 -56 -77 l-53 -73 53 -47 53 -47 -17 -49 c-9 -27 -19 -73 -23
-102 l-6 -53 -57 -11 c-82 -16 -81 -14 -69 -94 18 -124 9 -114 93 -108 72 5
73 5 80 -20 3 -14 26 -55 51 -92 l44 -67 -35 -55 c-19 -30 -34 -57 -32 -58 6
-6 124 -91 137 -99 10 -7 26 5 56 40 l42 48 54 -18 c30 -9 77 -20 104 -23 28
-3 53 -11 57 -17 7 -10 11 -56 5 -56 -1 0 -42 14 -91 31 -48 17 -90 28 -92 26
-3 -2 41 -24 97 -48 56 -24 103 -49 106 -56 3 -7 15 -13 28 -13 12 0 85 -25
161 -56 256 -103 744 -280 744 -269 0 9 -465 205 -665 280 -135 50 -164 65
-128 65 45 0 49 7 45 73 l-4 62 47 19 c26 10 69 36 96 58 l50 39 50 -32 c28
-18 54 -28 58 -23 25 28 101 134 101 139 0 4 -18 24 -41 44 l-41 36 21 76 c12
42 22 93 23 113 1 38 4 40 71 52 20 3 39 9 42 13 2 4 -1 45 -8 92 l-12 84 -62
3 c-58 3 -64 5 -78 32 -15 29 -15 29 17 35 291 50 702 134 694 142 -6 7 -234
-25 -499 -68 -136 -23 -249 -40 -250 -38 -1 2 -17 23 -35 46 l-32 42 31 51
c17 28 28 55 23 59 -5 4 -33 24 -61 45 -29 21 -53 41 -53 45 0 4 46 35 103 68
128 76 487 303 487 309 0 7 1 7 -165 -82z m-520 -354 c-10 -11 -23 -20 -29
-20 -6 1 0 10 13 20 30 26 39 26 16 0z m-142 -291 c26 -12 27 -14 10 -20 -13
-6 -10 -8 14 -8 24 -1 40 -11 71 -46 140 -159 25 -415 -186 -415 -132 0 -243
99 -259 230 -13 114 76 242 189 271 43 11 125 4 161 -12z m-1711 -166 c58 -60
93 -144 93 -228 0 -90 -18 -129 -62 -133 -28 -3 -34 1 -52 36 -24 46 -41 142
-41 227 0 69 10 135 19 135 4 0 23 -17 43 -37z"/>
<path d="M13191 6355 c-46 -8 -87 -17 -91 -22 -4 -4 -21 -44 -38 -87 l-32 -79
43 -54 c23 -30 49 -64 58 -75 14 -19 19 -19 108 -6 l93 13 35 87 35 87 -58 76
c-32 41 -61 74 -64 74 -3 -1 -43 -7 -89 -14z m63 -118 c23 -16 24 -63 3 -84
-18 -19 -61 -20 -82 -3 -20 16 -19 64 1 84 19 19 54 21 78 3z"/>
<path d="M9400 7085 l0 -55 710 0 710 0 0 55 0 55 -710 0 -710 0 0 -55z"/>
<path d="M9400 6961 l0 -30 710 2 710 2 0 28 0 27 -710 0 -710 0 0 -29z"/>
<path d="M8897 5931 c-4 -24 -5 -46 -2 -49 3 -3 5 4 5 16 0 11 4 22 8 24 5 2
5 14 2 28 -5 22 -7 19 -13 -19z"/>
<path d="M8940 5954 c0 -8 5 -12 10 -9 6 3 10 10 10 16 0 5 -4 9 -10 9 -5 0
-10 -7 -10 -16z"/>
<path d="M8984 5855 c0 -55 1 -76 3 -47 2 29 2 74 0 100 -2 26 -3 2 -3 -53z"/>
<path d="M8933 5845 c0 -44 2 -61 4 -37 2 23 2 59 0 80 -2 20 -4 1 -4 -43z"/>
<path d="M8914 5755 c0 -99 2 -128 8 -100 5 22 4 85 0 140 l-9 100 1 -140z"/>
<path d="M8962 5844 c-1 -23 -4 -57 -7 -75 -5 -31 -5 -32 5 -9 6 13 9 47 7 75
-3 46 -3 47 -5 9z"/>
<path d="M9001 5764 c0 -11 3 -14 6 -6 3 7 2 16 -1 19 -3 4 -6 -2 -5 -13z"/>
<path d="M8942 5705 c0 -16 2 -22 5 -12 2 9 2 23 0 30 -3 6 -5 -1 -5 -18z"/>
<path d="M8972 5670 c-3 -58 10 -143 19 -128 12 18 11 58 0 58 -6 0 -12 24
-14 53 -2 33 -4 39 -5 17z"/>
<path d="M8932 5635 c0 -16 2 -22 5 -12 2 9 2 23 0 30 -3 6 -5 -1 -5 -18z"/>
<path d="M9001 5634 c0 -11 3 -14 6 -6 3 7 2 16 -1 19 -3 4 -6 -2 -5 -13z"/>
<path d="M9013 5520 c0 -30 2 -43 4 -27 2 15 2 39 0 55 -2 15 -4 2 -4 -28z"/>
<path d="M8921 5534 c0 -11 3 -14 6 -6 3 7 2 16 -1 19 -3 4 -6 -2 -5 -13z"/>
<path d="M12788 5510 c94 -90 563 -426 666 -476 126 -62 -482 384 -655 480
l-34 19 23 -23z"/>
<path d="M8942 5265 c0 -16 2 -22 5 -12 2 9 2 23 0 30 -3 6 -5 -1 -5 -18z"/>
<path d="M9052 5065 c0 -16 2 -22 5 -12 2 9 2 23 0 30 -3 6 -5 -1 -5 -18z"/>
<path d="M8505 5042 c-133 -40 -224 -94 -335 -199 l-68 -64 -21 35 c-37 59
-137 144 -219 183 -74 37 -81 38 -182 38 -157 0 -274 -46 -393 -155 l-57 -52
-45 29 c-27 17 -43 33 -40 41 20 54 18 59 -31 76 -65 22 -71 21 -85 -18 -12
-32 -15 -34 -73 -39 -34 -3 -69 -9 -78 -12 -10 -4 -18 0 -22 12 -4 10 -13 26
-20 36 -14 17 -16 17 -65 -8 -28 -14 -51 -30 -51 -36 0 -5 7 -24 16 -40 15
-29 14 -31 -16 -66 -17 -19 -37 -46 -43 -60 -6 -13 -16 -22 -23 -19 -7 3 -28
8 -47 11 -31 6 -35 4 -41 -19 l-6 -26 -1028 -2 c-1116 -2 -1653 -4 -2727 -9
l-700 -3 900 -7 c495 -3 1495 -7 2223 -8 1264 -1 1323 -2 1318 -19 -5 -14 3
-21 37 -32 l42 -15 7 -70 c5 -59 3 -72 -10 -82 -61 -45 -58 -35 -30 -89 27
-51 33 -54 83 -33 28 11 33 10 60 -16 17 -15 40 -34 53 -42 20 -14 22 -21 16
-62 l-6 -46 57 -16 56 -17 15 38 c15 36 16 37 89 46 l74 10 18 -33 c10 -18 20
-33 23 -33 2 0 28 12 56 27 l51 27 -15 38 -15 38 42 45 c22 24 41 50 41 56 0
8 14 9 44 5 l45 -7 15 52 c9 29 16 55 16 59 0 3 -16 12 -35 19 -33 12 -35 15
-35 59 0 26 -3 57 -6 70 l-6 22 346 0 c301 0 346 2 346 15 0 13 -44 15 -332
15 -230 1 -328 4 -316 11 17 9 16 14 -8 62 -15 29 -27 53 -29 55 -1 1 -19 -5
-40 -14 -31 -13 -39 -13 -46 -2 -5 7 -9 16 -9 20 0 16 117 101 184 133 94 45
160 58 265 53 70 -3 99 -10 153 -35 76 -36 154 -104 204 -177 l33 -50 -20 -30
c-11 -17 -39 -69 -61 -114 -35 -71 -42 -96 -46 -161 -3 -59 0 -85 12 -109 42
-81 164 -81 207 0 36 66 28 208 -17 336 l-27 74 54 55 c153 156 310 227 504
227 93 -1 122 -5 190 -28 84 -29 114 -49 116 -75 0 -9 3 -11 5 -4 7 15 37 -1
96 -52 98 -85 185 -228 240 -395 17 -52 26 -69 22 -45 -22 150 -137 371 -245
471 -19 17 -40 40 -47 50 -7 11 -9 12 -5 4 6 -13 4 -13 -10 -1 -9 7 -14 18
-10 24 3 6 1 7 -6 3 -6 -4 -18 -3 -25 3 -7 6 -55 25 -107 42 -81 28 -111 33
-214 35 -94 3 -133 0 -180 -14z m-1465 -293 c21 -6 51 -22 66 -35 26 -21 27
-23 9 -24 -11 0 -30 7 -43 15 -39 28 -115 31 -162 6 -58 -30 -84 -28 -45 5 50
41 110 52 175 33z m-5 -49 c14 -6 -2 -9 -50 -9 -49 -1 -65 2 -55 9 18 12 78
12 105 0z m1089 -57 c40 -126 44 -230 11 -293 -16 -31 -34 -40 -73 -40 -104 2
-102 157 4 338 14 23 29 42 34 42 4 0 15 -21 24 -47z m-1289 0 c-41 -98 -8
-194 79 -234 52 -23 90 -23 142 0 62 28 89 73 89 146 0 33 -4 70 -8 83 -6 16
-5 22 7 22 21 0 39 -64 34 -120 -10 -98 -94 -174 -193 -174 -69 0 -122 29
-162 88 -27 40 -33 58 -33 102 0 60 16 104 38 104 10 0 12 -6 7 -17z m281 -15
c84 -161 -141 -298 -252 -153 -33 44 -38 116 -11 159 17 26 19 26 132 26 l114
0 17 -32z"/>
<path d="M9025 5009 c-4 -6 -14 -8 -23 -4 -9 3 -13 2 -8 -2 13 -13 56 -10 56
4 0 16 -16 17 -25 2z"/>
<path d="M8990 4894 c-21 -12 -21 -14 -4 -9 19 5 21 2 18 -22 -3 -23 -2 -22 7
6 13 41 11 43 -21 25z"/>
<path d="M9026 4882 c-2 -9 -7 -37 -11 -62 -4 -33 -3 -41 4 -30 6 8 11 32 11
52 0 29 3 36 15 32 8 -4 15 -2 15 4 0 18 -29 22 -34 4z"/>
<path d="M8982 4835 c0 -11 3 -29 8 -40 11 -25 11 1 0 35 -6 20 -8 21 -8 5z"/>
<path d="M9065 4840 c-3 -5 -1 -10 4 -10 6 0 11 5 11 10 0 6 -2 10 -4 10 -3 0
-8 -4 -11 -10z"/>
<path d="M9070 4695 c0 -60 3 -106 6 -102 7 7 6 199 -2 206 -2 2 -4 -44 -4
-104z"/>
<path d="M9022 4730 c0 -19 2 -27 5 -17 2 9 2 25 0 35 -3 9 -5 1 -5 -18z"/>
<path d="M9052 4690 c0 -19 2 -27 5 -17 2 9 2 25 0 35 -3 9 -5 1 -5 -18z"/>
<path d="M12460 4675 c0 -13 160 -15 1380 -15 1220 0 1380 2 1380 15 0 13
-160 15 -1380 15 -1220 0 -1380 -2 -1380 -15z"/>
<path d="M16913 4673 c180 -2 474 -2 655 0 180 1 32 2 -328 2 -360 0 -508 -1
-327 -2z"/>
<path d="M9043 4570 c0 -25 2 -35 4 -22 2 12 2 32 0 45 -2 12 -4 2 -4 -23z"/>
<path d="M9023 4545 c0 -27 2 -38 4 -22 2 15 2 37 0 50 -2 12 -4 0 -4 -28z"/>
<path d="M9093 4530 c0 -36 2 -50 4 -32 2 17 2 47 0 65 -2 17 -4 3 -4 -33z"/>
<path d="M9062 4550 c0 -14 2 -19 5 -12 2 6 2 18 0 25 -3 6 -5 1 -5 -13z"/>
<path d="M9112 4395 c0 -16 2 -22 5 -12 2 9 2 23 0 30 -3 6 -5 -1 -5 -18z"/>
<path d="M8740 3560 c0 -7 457 -10 1350 -10 893 0 1350 3 1350 10 0 7 -457 10
-1350 10 -893 0 -1350 -3 -1350 -10z"/>
<path d="M8740 3455 l0 -55 1350 0 1350 0 0 55 0 55 -1350 0 -1350 0 0 -55z"/>
<path d="M8903 3325 c26 -20 51 -44 57 -55 11 -20 27 -20 1053 -20 l1042 0 29
36 c15 19 42 44 60 55 31 19 19 19 -1128 19 l-1159 0 46 -35z"/>
<path d="M11406 3345 c25 -19 34 -19 34 0 0 10 -10 15 -27 15 -26 0 -26 -1 -7
-15z"/>
<path d="M8996 3193 c2 -10 5 -36 7 -58 l2 -40 1013 -3 1012 -2 0 44 c0 24 3
51 6 60 6 15 -88 16 -1019 16 -971 0 -1025 -1 -1021 -17z"/>
</g>
</svg>
